<svg xmlns="http://www.w3.org/2000/svg" width="282.839" height="252.483" viewBox="0 0 282.839 252.483"><defs><style>.a{fill:#04d361;}.b{fill:#fff;}.c{opacity:0.5;}</style></defs><g transform="translate(74.384 0)"><g transform="translate(0 0)"><path class="a" d="M1615.625-285.322c-14.046-7.708-28.264-15.588-42.311-23.3a9.827,9.827,0,0,0-9.25,0c-14.046,7.709-28.093,15.588-42.139,23.3a8.747,8.747,0,0,0-4.625,7.366v46.936a8.512,8.512,0,0,0,4.8,7.537c3.94,2.056,7.708,4.282,11.649,6.338l22.954,12.676,7.023,3.94a6.072,6.072,0,0,0,1.541.685l.685.343h.172a9.87,9.87,0,0,0,7.023-.685c14.047-7.708,28.093-15.588,42.14-23.3a8.626,8.626,0,0,0,4.8-7.537v-46.936A8.8,8.8,0,0,0,1615.625-285.322Zm-60.811,52.589-10.963,10.107a.631.631,0,0,1-.514.171h-.172a.328.328,0,0,1-.171-.514l3.94-14.389a4.781,4.781,0,0,1,3.083-3.426l.171-.171a1.5,1.5,0,0,1,1.2.171c.686.514,1.2.856,1.885,1.37a12.745,12.745,0,0,0,2.055,1.2,1.158,1.158,0,0,1,.686,1.028l.342.343A4.84,4.84,0,0,1,1554.815-232.734Zm11.306-9.935c-.171,0-.171.171-.343.171l-3.426-.343a1.259,1.259,0,0,0-1.028.343l-3.768,3.426a.629.629,0,0,1-.514.171,25.549,25.549,0,0,1-5.138-3.083c-.171-.171-.343-.343-.171-.514l1.2-4.968a1.135,1.135,0,0,0-.171-1.028l-1.885-2.912c0-.171-.171-.171-.171-.343,0-.343.171-.685.171-1.2v-.171h0s.171-.171.171,0c1.542,1.028,8.051,4.968,8.051,4.968s6.51,3.94,8.051,4.968a.63.63,0,0,1,.171.514Zm22.954-31.348.171.171,3.426.514h.171c.685.171,1.542,1.028.342,2.57L1578.8-251.234a1.03,1.03,0,0,1-.685.171l-5.825-3.6a1.848,1.848,0,0,0-1.884,0l-1.884,1.2a1.856,1.856,0,0,1-1.885,0,2.669,2.669,0,0,0-3.6.343,7.208,7.208,0,0,1-8.394.343l-7.708-4.8-.343-.343h0a2.227,2.227,0,0,1-.171-3.255h0a2.532,2.532,0,0,1,3.425-.857l1.542.857h.171c.172.171.343,0,.343-.171l.342-2.056c0-.171,0-.343-.171-.343l-.342-.171a1.587,1.587,0,0,1-.514-2.056,1.377,1.377,0,0,1,1.884-.514l10.449,6.338h.172c.171.171.342,0,.514-.171l10.791-14.732a1.9,1.9,0,0,1,1.885-.685l2.74.343,1.884.343c0,.171.172,0,.172,0,.171-.171.171-.171,0-.171a1.624,1.624,0,0,1-.343-2.227l3.6-4.968a1.985,1.985,0,0,1,1.713-.685l6.851,1.028a.891.891,0,0,1,.686.343l.171.171c.343.343.172.857-.171,1.2,0,0-3.426,4.625-4.625,6.338v.171C1588.732-274.359,1588.732-274.188,1589.074-274.017Z" transform="translate(-1501.37 314.443)"/><path class="b" d="M1558-301.366c5.31-4.111,8.222-4.968,12.676-4.968a8.72,8.72,0,0,1,3.768.857c3.941,2.227,5.653,8.908,4.454,18.5l5.653,3.083c1.884-13.7-.685-23.125-7.366-26.894a13.572,13.572,0,0,0-6.851-1.713c-6,0-10.792,1.713-18.329,7.708C1554.227-303.592,1556.112-302.393,1558-301.366Z" transform="translate(-1476.63 312.5)"/><path class="b" d="M1523.931-258.309c-7.88-3.769-9.764-6.852-9.764-11.134,0-4.454,4.453-8.736,12.5-12.5V-288.8c-11.991,4.967-18.672,11.82-18.672,19.185,0,7.537,3.94,12.847,15.931,17.815Z" transform="translate(-1508 329.398)"/><path class="b" d="M1529.3-289.86c-1.028-9.422.685-13.361,4.8-15.588a6.111,6.111,0,0,1,3.769-.857c4.454,0,9.593,2.4,14.9,6.509l5.653-3.083c-7.366-6-14.732-9.421-20.727-9.421a13.575,13.575,0,0,0-6.852,1.713c-6.681,3.94-9.421,10.449-7.366,24.153C1525.535-287.8,1527.419-288.832,1529.3-289.86Z" transform="translate(-1497.442 312.643)"/><path class="b" d="M1578.341-287.8v6.509c7.88,3.769,9.764,6.852,9.764,11.134,0,4.454-4.454,8.736-12.5,12.5v6.852c11.991-4.968,18.672-11.82,18.672-19.185C1594.272-277.522,1590.5-282.832,1578.341-287.8Z" transform="translate(-1459.803 330.111)"/><path class="b" d="M1550.474-241.756c-5.311,4.111-8.223,4.968-12.677,4.968a8.72,8.72,0,0,1-3.769-.856c-4.111-2.227-5.653-9.079-4.454-18.5-1.884-1.028-3.94-2.056-5.824-3.255-1.884,13.533.685,22.954,7.194,26.723a13.576,13.576,0,0,0,6.852,1.713c6,.171,10.963-1.542,18.5-7.537Z" transform="translate(-1497.201 350.36)"/><path class="b" d="M1580.164-254.445c1.028,9.421-.856,13.361-4.8,15.588a6.11,6.11,0,0,1-3.769.856c-4.453,0-9.592-2.4-15.074-6.509-1.884,1.028-3.768,2.056-5.824,3.083,7.538,6.167,14.732,9.593,20.9,9.593a13.578,13.578,0,0,0,6.853-1.713c6.681-3.94,9.592-10.449,7.366-24.153C1584.1-256.672,1582.048-255.644,1580.164-254.445Z" transform="translate(-1477.556 351.572)"/></g></g><g class="c" transform="translate(59.318 237.842)"><g transform="translate(0 0)"><path class="b" d="M15.016,2.914v-14.25h4.991a6.554,6.554,0,0,1,3.934.993,3.4,3.4,0,0,1,1.341,2.912,3.219,3.219,0,0,1-.538,1.845,3.109,3.109,0,0,1-1.5,1.17A3.008,3.008,0,0,1,24.974-3.31a3.27,3.27,0,0,1,.631,2.036,3.761,3.761,0,0,1-1.311,3.112,5.9,5.9,0,0,1-3.739,1.077Zm2.936-6.2V.556h2.515a2.427,2.427,0,0,0,1.62-.494A1.7,1.7,0,0,0,22.669-1.3a1.789,1.789,0,0,0-2.026-1.987Zm0-2.075h2.173q2.222-.039,2.222-1.771a1.637,1.637,0,0,0-.563-1.395,2.96,2.96,0,0,0-1.776-.426H17.952Zm29.7,1.478A8.6,8.6,0,0,1,46.907-.2a5.6,5.6,0,0,1-2.129,2.447A5.888,5.888,0,0,1,41.6,3.11a5.928,5.928,0,0,1-3.161-.851A5.657,5.657,0,0,1,36.288-.174a8.356,8.356,0,0,1-.773-3.636v-.7a8.557,8.557,0,0,1,.758-3.7,5.647,5.647,0,0,1,2.143-2.457,5.9,5.9,0,0,1,3.166-.856,5.9,5.9,0,0,1,3.166.856,5.647,5.647,0,0,1,2.143,2.457,8.533,8.533,0,0,1,.758,3.695Zm-2.975-.646a6,6,0,0,0-.8-3.406A2.615,2.615,0,0,0,41.583-9.1a2.616,2.616,0,0,0-2.28,1.15,5.928,5.928,0,0,0-.812,3.372v.695a6.071,6.071,0,0,0,.8,3.386A2.608,2.608,0,0,0,41.6.7a2.585,2.585,0,0,0,2.271-1.16,6.036,6.036,0,0,0,.8-3.381Zm24.953.646A8.6,8.6,0,0,1,68.884-.2a5.6,5.6,0,0,1-2.129,2.447,5.888,5.888,0,0,1-3.176.861,5.928,5.928,0,0,1-3.161-.851A5.657,5.657,0,0,1,58.266-.174a8.356,8.356,0,0,1-.773-3.636v-.7a8.557,8.557,0,0,1,.758-3.7,5.647,5.647,0,0,1,2.143-2.457,5.9,5.9,0,0,1,3.166-.856,5.9,5.9,0,0,1,3.166.856A5.647,5.647,0,0,1,68.87-8.218a8.533,8.533,0,0,1,.758,3.695Zm-2.975-.646a6,6,0,0,0-.8-3.406A2.615,2.615,0,0,0,63.56-9.1a2.616,2.616,0,0,0-2.28,1.15,5.928,5.928,0,0,0-.812,3.372v.695A6.072,6.072,0,0,0,61.27-.5,2.608,2.608,0,0,0,63.58.7,2.585,2.585,0,0,0,65.85-.457a6.036,6.036,0,0,0,.8-3.381ZM89.795-8.957H85.43V2.914H82.494V-8.957H78.188v-2.378H89.795ZM110.52-1.832a5.042,5.042,0,0,1-1.7,3.621,5.963,5.963,0,0,1-4.037,1.321,5.362,5.362,0,0,1-4.311-1.845A7.564,7.564,0,0,1,98.9-3.8v-.871a8.542,8.542,0,0,1,.724-3.621,5.427,5.427,0,0,1,2.07-2.4,5.8,5.8,0,0,1,3.127-.837A5.809,5.809,0,0,1,108.8-10.21,5.419,5.419,0,0,1,110.539-6.5H107.6a2.976,2.976,0,0,0-.768-2,2.845,2.845,0,0,0-2.011-.621,2.5,2.5,0,0,0-2.2,1.052,5.9,5.9,0,0,0-.749,3.264v1.077a6.311,6.311,0,0,0,.7,3.376A2.448,2.448,0,0,0,104.784.712a2.9,2.9,0,0,0,2.031-.621,2.807,2.807,0,0,0,.768-1.923ZM128.631-.022h-5.148L122.5,2.914h-3.122l5.3-14.25h2.721l5.334,14.25H129.62ZM124.276-2.4h3.562l-1.791-5.334Zm21.772-8.935L149.708-1l3.641-10.335H157.2V2.914h-2.946v-3.9l.294-6.724L150.706,2.914H148.69L144.854-7.695l.294,6.714v3.9h-2.936v-14.25Zm24.8,9.229V2.914h-2.936v-14.25h5.559a6.431,6.431,0,0,1,2.824.587,4.327,4.327,0,0,1,1.874,1.669,4.653,4.653,0,0,1,.656,2.461,4.092,4.092,0,0,1-1.434,3.3,5.972,5.972,0,0,1-3.969,1.209Zm0-2.378h2.623a2.579,2.579,0,0,0,1.776-.548,1.993,1.993,0,0,0,.612-1.566,2.35,2.35,0,0,0-.617-1.693,2.3,2.3,0,0,0-1.7-.666h-2.691Z" transform="translate(-15.016 11.531)"/></g></g><path class="b" d="M-104.274-10.273A19.152,19.152,0,0,1-112.7-4.738,35.272,35.272,0,0,1-124.761-2.77,23.9,23.9,0,0,1-136.953-5.8a20.239,20.239,0,0,1-8.092-8.809,31,31,0,0,1-2.924-13.572v-3.641a32.925,32.925,0,0,1,2.7-13.884,20,20,0,0,1,7.8-8.974,22.46,22.46,0,0,1,11.935-3.108q9.526,0,14.9,4.542t6.363,13.222h-10.74q-.736-4.6-3.255-6.731a10.4,10.4,0,0,0-6.933-2.133,9.784,9.784,0,0,0-8.57,4.23q-2.942,4.23-2.979,12.579v3.421q0,8.423,3.2,12.726t9.379,4.3q6.216,0,8.864-2.648v-9.232h-10.041v-8.128h21.075Zm6.584-13.5a23.6,23.6,0,0,1,2.28-10.556A16.694,16.694,0,0,1-88.845-41.5,19.154,19.154,0,0,1-78.9-44.037q8.055,0,13.149,4.929t5.683,13.388L-59.991-23q0,9.158-5.112,14.694T-78.822-2.77q-8.607,0-13.737-5.517T-97.69-23.293ZM-87.061-23q0,5.664,2.133,8.662a7.041,7.041,0,0,0,6.105,3A7.057,7.057,0,0,0-72.79-14.3q2.17-2.961,2.17-9.471,0-5.554-2.17-8.607A7.057,7.057,0,0,0-78.9-35.431,6.942,6.942,0,0,0-84.928-32.4Q-87.061-29.362-87.061-23Zm62.085,5.443a5.662,5.662,0,0,0-2.207-4.8q-2.207-1.673-7.944-3.531a56.318,56.318,0,0,1-9.085-3.66q-9.121-4.929-9.121-13.278a12.932,12.932,0,0,1,2.446-7.742,15.954,15.954,0,0,1,7.025-5.315,26.441,26.441,0,0,1,10.28-1.913,24.067,24.067,0,0,1,10.225,2.078,16.281,16.281,0,0,1,6.97,5.866,15.351,15.351,0,0,1,2.483,8.607H-24.939a7.221,7.221,0,0,0-2.317-5.719A9.525,9.525,0,0,0-33.767-49a10.176,10.176,0,0,0-6.289,1.71A5.394,5.394,0,0,0-42.3-42.787a5.167,5.167,0,0,0,2.63,4.377,29.711,29.711,0,0,0,7.742,3.31q9.416,2.832,13.719,7.025a13.99,13.99,0,0,1,4.3,10.446,12.888,12.888,0,0,1-5.26,10.905q-5.26,3.954-14.16,3.954A27.344,27.344,0,0,1-44.58-5.032a17.809,17.809,0,0,1-7.742-6.2,15.871,15.871,0,0,1-2.667-9.121h11.071q0,8.864,10.593,8.864a10.3,10.3,0,0,0,6.142-1.6A5.205,5.205,0,0,0-24.976-17.556ZM5.588-53.085V-43.3h6.8v7.8h-6.8v19.861a4.742,4.742,0,0,0,.846,3.163q.846.956,3.237.956a16.951,16.951,0,0,0,3.126-.257v8.055A21.882,21.882,0,0,1,6.36-2.77q-11.181,0-11.4-11.291V-35.5h-5.811v-7.8h5.811v-9.784ZM41.375-3.506a11.8,11.8,0,0,1-1.067-3.568,12.861,12.861,0,0,1-10.041,4.3,14.13,14.13,0,0,1-9.692-3.384,10.883,10.883,0,0,1-3.844-8.533,11.246,11.246,0,0,1,4.689-9.71q4.689-3.384,13.553-3.421h4.892V-30.1a6.558,6.558,0,0,0-1.416-4.414,5.571,5.571,0,0,0-4.469-1.655,6.333,6.333,0,0,0-4.211,1.287,4.373,4.373,0,0,0-1.526,3.531H17.615a10.677,10.677,0,0,1,2.133-6.4,14.1,14.1,0,0,1,6.032-4.616,21.983,21.983,0,0,1,8.754-1.673q7.356,0,11.678,3.7t4.322,10.39V-12.7q.037,5.664,1.582,8.57v.625ZM32.585-10.9a9.155,9.155,0,0,0,4.34-1.048,6.885,6.885,0,0,0,2.942-2.814V-21.6H35.895q-7.981,0-8.5,5.517l-.037.625a4.255,4.255,0,0,0,1.4,3.273A5.429,5.429,0,0,0,32.585-10.9ZM75.25-11.34a6.972,6.972,0,0,0,4.781-1.618,5.67,5.67,0,0,0,1.913-4.3h9.967A13.635,13.635,0,0,1,89.7-9.85a14.561,14.561,0,0,1-5.94,5.223A18.59,18.59,0,0,1,75.433-2.77Q66.9-2.77,61.972-8.2T57.043-23.183v-.7q0-9.2,4.892-14.675t13.425-5.48q7.466,0,11.972,4.248t4.579,11.31H81.943a7.244,7.244,0,0,0-1.913-5.02,6.394,6.394,0,0,0-4.855-1.931,6.405,6.405,0,0,0-5.609,2.7q-1.894,2.7-1.894,8.772v1.1q0,6.142,1.876,8.827A6.486,6.486,0,0,0,75.25-11.34Zm37.185-8.128-3.825,3.825V-3.506H97.98V-60h10.629v31.3l2.06-2.648L120.857-43.3h12.763L119.238-26.714,134.87-3.506H122.659Z" transform="translate(147.969 215.498)"/></svg>